<svg xmlns="http://www.w3.org/2000/svg" viewBox="0 0 480 320" role="img" aria-labelledby="t1 d1">
<title id="t1">Synthesis of aspirin from salicylic acid</title>
<desc id="d1">A reaction scheme: salicylic acid plus acetic anhydride, under acid catalysis, gives acetylsalicylic acid and acetic acid. The acetyl transfer is highlighted.</desc>
<rect width="480" height="320" fill="#FFFFFF"/>
<g font-family="Inter,-apple-system,'Segoe UI',sans-serif"><text x="26" y="34" font-size="12.5" font-weight="600" fill="#16191D">Acetylation of salicylic acid</text><text x="26" y="50" font-size="11" fill="#5A626E">esterification · acid-catalysed</text></g>
<g fill="none" stroke="#16191D" stroke-width="1.9" stroke-linecap="round" stroke-linejoin="round">
<path d="M92.0 120.0 L118.0 135.0 L118.0 165.0 L92.0 180.0 L66.0 165.0 L66.0 135.0 Z"/><path d="M92.0 127.2 L111.7 138.6"/><path d="M111.7 161.4 L92.0 172.8"/><path d="M72.3 161.4 L72.3 138.6"/><path d="M118.0 135.0 L46 108"/><path d="M92.0 120.0 L92 104"/><path d="M92 104 L124 84"/><path d="M92 104 L92 72"/><path d="M96.5 106 L96.5 76"/><path d="M330.0 120.0 L356.0 135.0 L356.0 165.0 L330.0 180.0 L304.0 165.0 L304.0 135.0 Z"/><path d="M330.0 127.2 L349.7 138.6"/><path d="M349.7 161.4 L330.0 172.8"/><path d="M310.3 161.4 L310.3 138.6"/><path d="M356.0 135.0 L284 108"/><path d="M330.0 120.0 L330 104"/><path d="M330 104 L362 84"/><path d="M330 104 L330 72"/><path d="M334.5 106 L334.5 76"/></g>
<g fill="none" stroke="#0B5CD5" stroke-width="2.4" stroke-linecap="round"><path d="M284 108 L250 128"/><path d="M250 128 L218 110"/><path d="M250 128 L250 160"/><path d="M245.5 126 L245.5 158"/></g>
<circle cx="250" cy="128" r="19" fill="#E8F0FC" opacity="0.75"/>
<g fill="none" stroke="#0B5CD5" stroke-width="2.4" stroke-linecap="round"><path d="M284 108 L250 128"/><path d="M250 128 L218 110"/><path d="M250 128 L250 160"/><path d="M245.5 126 L245.5 158"/></g>
<rect x="27" y="95" width="32" height="15" fill="#FFFFFF"/><text x="30" y="106" font-family="Inter,-apple-system,'Segoe UI',sans-serif" font-size="13.5" fill="#16191D">HO</text><rect x="81" y="59" width="16" height="15" fill="#FFFFFF"/><text x="84" y="70" font-family="Inter,-apple-system,'Segoe UI',sans-serif" font-size="13.5" fill="#16191D">O</text><rect x="123" y="77" width="30" height="15" fill="#FFFFFF"/><text x="126" y="88" font-family="Inter,-apple-system,'Segoe UI',sans-serif" font-size="13.5" fill="#16191D">OH</text><rect x="269" y="93" width="16" height="15" fill="#FFFFFF"/><text x="272" y="104" font-family="Inter,-apple-system,'Segoe UI',sans-serif" font-size="13.5" fill="#084099">O</text><rect x="241" y="165" width="16" height="15" fill="#FFFFFF"/><text x="244" y="176" font-family="Inter,-apple-system,'Segoe UI',sans-serif" font-size="13.5" fill="#084099">O</text><rect x="197" y="99" width="32" height="15" fill="#FFFFFF"/><text x="200" y="110" font-family="Inter,-apple-system,'Segoe UI',sans-serif" font-size="13.5" fill="#084099">CH</text><text x="226" y="114" font-family="Inter,-apple-system,'Segoe UI',sans-serif" font-size="9.5" fill="#084099">3</text><rect x="319" y="59" width="16" height="15" fill="#FFFFFF"/><text x="322" y="70" font-family="Inter,-apple-system,'Segoe UI',sans-serif" font-size="13.5" fill="#16191D">O</text><rect x="361" y="77" width="30" height="15" fill="#FFFFFF"/><text x="364" y="88" font-family="Inter,-apple-system,'Segoe UI',sans-serif" font-size="13.5" fill="#16191D">OH</text><g stroke="#16191D" stroke-width="1.8" fill="none"><path d="M170 150 L228 150"/><path d="M220 145 L228 150 L220 155"/></g>
<text x="176" y="140" font-family="Inter,-apple-system,'Segoe UI',sans-serif" font-size="11" fill="#5A626E">H</text><text x="185" y="143" font-family="Inter,-apple-system,'Segoe UI',sans-serif" font-size="8" fill="#5A626E">2</text><text x="190" y="140" font-family="Inter,-apple-system,'Segoe UI',sans-serif" font-size="11" fill="#5A626E">SO</text><text x="207" y="143" font-family="Inter,-apple-system,'Segoe UI',sans-serif" font-size="8" fill="#5A626E">4</text>
<text x="180" y="168" font-family="Inter,-apple-system,'Segoe UI',sans-serif" font-size="11" fill="#5A626E">85 °C</text>
<text x="60" y="222" font-family="Inter,-apple-system,'Segoe UI',sans-serif" font-size="11.5" fill="#5A626E">salicylic acid</text><text x="286" y="222" font-family="Inter,-apple-system,'Segoe UI',sans-serif" font-size="11.5" fill="#084099" font-weight="600">acetylsalicylic acid</text>
<text x="192" y="248" font-family="Inter,-apple-system,'Segoe UI',sans-serif" font-size="10.5" fill="#8A929E">acetyl group transferred</text>
<text x="26" y="296" font-family="Inter,-apple-system,'Segoe UI',sans-serif" font-size="11.5" fill="#5A626E">Structures and bonds derived from the passage</text>
<rect x="0" y="314" width="480" height="6" fill="#0B5CD5"/>
</svg>
