<svg xmlns="http://www.w3.org/2000/svg" viewBox="0 0 240 150" role="img" aria-label="Battle map with formations and advance"><rect width="240" height="150" fill="#FFFFFF"/><g fill="none" stroke="#8A929E" stroke-width="1.1"><path d="M20 96 C70 74 150 74 220 94"/><path d="M20 103 C70 81 150 81 220 101"/><path d="M20 110 C70 88 150 88 220 108"/><path d="M20 117 C70 95 150 95 220 115"/></g><g fill="#16191D"><rect x="40" y="46" width="18" height="8" rx="1.5"/><rect x="66" y="46" width="18" height="8" rx="1.5"/><rect x="92" y="46" width="18" height="8" rx="1.5"/><rect x="118" y="46" width="18" height="8" rx="1.5"/><rect x="144" y="46" width="18" height="8" rx="1.5"/><rect x="170" y="46" width="18" height="8" rx="1.5"/></g><g fill="#0B5CD5"><rect x="54" y="126" width="18" height="8" rx="1.5"/><rect x="80" y="126" width="18" height="8" rx="1.5"/><rect x="106" y="126" width="18" height="8" rx="1.5"/><rect x="132" y="126" width="18" height="8" rx="1.5"/><rect x="158" y="126" width="18" height="8" rx="1.5"/></g><defs><marker id="ta" viewBox="0 0 10 10" refX="8" refY="5" markerWidth="5" markerHeight="5" orient="auto"><path d="M0 0 L10 5 L0 10 z" fill="#0B5CD5"/></marker></defs><g fill="none" stroke="#0B5CD5" stroke-width="1.7" stroke-linecap="round" stroke-dasharray="5 4" marker-end="url(#ta)"><path d="M78 122 L92 66"/><path d="M126 122 L128 66"/><path d="M174 122 L164 66"/></g></svg>
